<svg xmlns="http://www.w3.org/2000/svg" width="13.052" height="15.188" viewBox="0 0 13.052 15.188"><g transform="translate(-5011.421 -4277.937)"><path d="M5011.421,4286.138a6.808,6.808,0,0,1,.19-1.556A4.171,4.171,0,0,1,5013,4282.4a3.816,3.816,0,0,1,1.469-.793,3.123,3.123,0,0,1,.718-.114,3.66,3.66,0,0,1,1.276.19c.2.064.4.137.594.2a6.178,6.178,0,0,0,.64.19,2.291,2.291,0,0,0,1.162-.037c.234-.067.459-.158.687-.243a5.712,5.712,0,0,1,.8-.236,3.787,3.787,0,0,1,1.15-.052,3.057,3.057,0,0,1,.9.244,4.24,4.24,0,0,1,1.551,1.147c.027.031.05.064.074.1a.049.049,0,0,1-.016.07c-.051.034-.1.067-.153.1a3.237,3.237,0,0,0-.585.468,3.083,3.083,0,0,0-.885,1.741,3.342,3.342,0,0,0,.683,2.649,3.155,3.155,0,0,0,1.2.945l.184.085a.056.056,0,0,1,.026.069c-.017.044-.034.088-.053.132a10.768,10.768,0,0,1-.876,1.621,11.629,11.629,0,0,1-.8,1.1,4.641,4.641,0,0,1-.679.667,2.493,2.493,0,0,1-.627.367,1.661,1.661,0,0,1-.553.115,2,2,0,0,1-.832-.145c-.131-.054-.26-.114-.389-.171a3.525,3.525,0,0,0-.667-.238,2.362,2.362,0,0,0-.481-.067c-.142,0-.284,0-.426,0a2.821,2.821,0,0,0-1.007.2c-.151.059-.3.126-.448.188-.1.042-.2.084-.3.121a1.986,1.986,0,0,1-.978.1,1.806,1.806,0,0,1-.629-.219,3.138,3.138,0,0,1-.679-.508,5.694,5.694,0,0,1-.6-.686,10.406,10.406,0,0,1-1.342-2.33,9.3,9.3,0,0,1-.573-2.023A9.672,9.672,0,0,1,5011.421,4286.138Z" fill="#fff"/><path d="M5017.694,4281.177a2.526,2.526,0,0,1,.157-.854,3.548,3.548,0,0,1,1.855-2.073,3.376,3.376,0,0,1,.982-.308c.02,0,.04,0,.06,0a.079.079,0,0,1,.09.063,2.034,2.034,0,0,1,.029.4,3.55,3.55,0,0,1-1.381,2.6,3.2,3.2,0,0,1-1.049.516,2.677,2.677,0,0,1-.6.083h-.02a.092.092,0,0,1-.1-.085C5017.709,4281.406,5017.7,4281.291,5017.694,4281.177Z" fill="#fff"/></g></svg>