<svg xmlns="http://www.w3.org/2000/svg" width="20" height="25" viewBox="0 0 20 25">
  <g id="Group_403" data-name="Group 403" transform="translate(-5762 -7425)">
    <rect id="Rectangle_865" data-name="Rectangle 865" width="20" height="25" transform="translate(5762 7425)" fill="#fff"/>
    <g id="Group_401" data-name="Group 401" transform="translate(0 1)">
      <path id="Path_250" data-name="Path 250" d="M5780.627,7436.862a1.353,1.353,0,0,0-1.041-1.315h.029a1.354,1.354,0,0,0,0-2.708,1.017,1.017,0,0,0-.116.006,1.069,1.069,0,0,0-.119-.006h-4.392a1.5,1.5,0,0,1-.491-.348c-.08-.086-.142-.185-.2-.258s-.075-.1.026-.287.339-.582.755-1.388c.8-1.543.99-2.955-.153-3.959a.993.993,0,0,0-.951-.019c-.18.125-.22.152-.433.641a10.446,10.446,0,0,1-1.708,2.83,5.424,5.424,0,0,1-.7.664,12.372,12.372,0,0,0-1.4,1.14,14.7,14.7,0,0,0-.658,1.339c-.077.133-.092.2-.183.345a2.559,2.559,0,0,1-.657.313c-.18.075-.353.115-.353.174v8.6c0,.194.008.514.008.514.271.359,4.573.359,4.612.359h5.6l.246,0h.022l.045,0h.044a1.325,1.325,0,0,0,.341-2.575q.059.006.117.006a1.373,1.373,0,0,0,.313-2.71c.015,0,.03,0,.046,0A1.355,1.355,0,0,0,5780.627,7436.862Z" fill="#ccc"/>
      <path id="Path_251" data-name="Path 251" d="M5766.366,7433.2H5763.7a.687.687,0,0,0-.686.685v9.528a.687.687,0,0,0,.686.685h2.669a.687.687,0,0,0,.686-.685v-9.528A.687.687,0,0,0,5766.366,7433.2Zm-.677,10.141a.605.605,0,1,1,.606-.6A.605.605,0,0,1,5765.689,7443.341Z" fill="#ccc"/>
    </g>
  </g>
</svg>
