<svg xmlns="http://www.w3.org/2000/svg" width="84.595" height="84.595" viewBox="0 0 84.595 84.595">
  <g id="Group_555" data-name="Group 555" transform="translate(-7513.114 -3652.199)">
    <circle id="Ellipse_33" data-name="Ellipse 33" cx="30.089" cy="30.089" r="30.089" transform="matrix(0.626, -0.78, 0.78, 0.626, 7513.114, 3699.141)" fill="#cbd251" style="mix-blend-mode: multiply;isolation: isolate"/>
    <g id="Group_554" data-name="Group 554">
      <path id="Path_346" data-name="Path 346" d="M7554.36,3708.066l-17,18.076a6.206,6.206,0,0,1-9.634-7.822l14.2-20.353a2.071,2.071,0,0,1,2.887-.515l9.463,7.682A2.072,2.072,0,0,1,7554.36,3708.066Z" fill="#58b3b5" style="mix-blend-mode: multiply;isolation: isolate"/>
      <path id="Path_347" data-name="Path 347" d="M7566.036,3696.926a12.41,12.41,0,1,0-16.018-13.005Z" fill="#fff"/>
      <path id="Path_348" data-name="Path 348" d="M7556.363,3712.161l-19.268-15.644a2.068,2.068,0,0,1-.3-2.909l10.429-12.845a2.067,2.067,0,0,1,2.909-.3L7569.4,3696.1a2.068,2.068,0,0,1,.3,2.909l-10.429,12.846A2.068,2.068,0,0,1,7556.363,3712.161Z" fill="#08396f"/>
    </g>
  </g>
</svg>
