<svg xmlns="http://www.w3.org/2000/svg" width="13.37" height="15.832" viewBox="0 0 13.37 15.832"><g transform="translate(-5038.727 -4277.615)"><path d="M5045.423,4282.93h4.03c.077,0,.155,0,.232.01a.06.06,0,0,1,.055.056c.006.07.009.141.009.211q0,1.092,0,2.184v3.859c0,.029,0,.057,0,.085a.847.847,0,0,1-.434.774.647.647,0,0,1-.385.1h-.657c-.057,0-.113,0-.169.007a.09.09,0,0,0-.084.081c0,.063-.007.127-.007.191q0,.944,0,1.887a1.261,1.261,0,0,1-.048.377,1.075,1.075,0,0,1-.256.433.872.872,0,0,1-1.335-.1,1.165,1.165,0,0,1-.212-.633c0-.064,0-.128,0-.191,0-.58,0-1.159,0-1.739,0-.064,0-.127,0-.191s-.039-.108-.122-.114l-.085,0c-.361,0-.721,0-1.082,0-.191,0-.2.013-.2.206,0,.565,0,1.131,0,1.7,0,.128,0,.255,0,.382a1.022,1.022,0,0,1-.308.7.864.864,0,0,1-1.317-.111.992.992,0,0,1-.2-.592c0-.085,0-.17,0-.254q0-.88,0-1.76c0-.267,0-.267-.273-.268-.212,0-.424,0-.636,0a.837.837,0,0,1-.79-.538.6.6,0,0,1-.036-.164c-.006-.063,0-.127,0-.191q0-3.043,0-6.086c0-.077,0-.155.012-.232a.064.064,0,0,1,.056-.056c.063-.006.126-.01.19-.01h4.071Z" fill="#fff"/><path d="M5045.407,4282.417h-3.985c-.078,0-.155,0-.233-.006a.085.085,0,0,1-.07-.069.3.3,0,0,1,0-.042,3.666,3.666,0,0,1,.487-1.673,4.068,4.068,0,0,1,1.433-1.444c.09-.055.182-.107.273-.162a.072.072,0,0,0,.023-.094c-.047-.086-.1-.172-.145-.258-.165-.288-.331-.576-.5-.864a.934.934,0,0,1-.052-.115.057.057,0,0,1,.036-.068.09.09,0,0,1,.06,0,.264.264,0,0,1,.093.113c.114.2.226.391.34.586.1.165.191.331.288.495.058.1.072.1.188.058a4.666,4.666,0,0,1,.665-.213,5.043,5.043,0,0,1,.795-.118,5.127,5.127,0,0,1,.8.014,4.025,4.025,0,0,1,.891.179c.115.035.226.08.34.119a1.007,1.007,0,0,0,.121.037.076.076,0,0,0,.076-.027,1.314,1.314,0,0,0,.082-.123c.189-.324.376-.648.565-.971.024-.043.051-.085.078-.126a.071.071,0,0,1,.093-.025.083.083,0,0,1,.023.1,1.27,1.27,0,0,1-.065.132q-.13.231-.263.46l-.315.552c-.011.019-.022.037-.031.056-.028.054-.017.086.042.12.037.021.075.04.111.061a4.153,4.153,0,0,1,.977.74,3.738,3.738,0,0,1,1.018,1.919,2.3,2.3,0,0,1,.057.483.94.94,0,0,1-.008.1.062.062,0,0,1-.055.057,1.886,1.886,0,0,1-.189.011h-4.049Zm2.065-2.216a.408.408,0,0,0-.425.406.414.414,0,0,0,.405.408.421.421,0,0,0,.426-.411A.406.406,0,0,0,5047.472,4280.2Zm-3.694.4a.412.412,0,0,0-.428-.4.419.419,0,0,0-.39.416.4.4,0,0,0,.407.4A.4.4,0,0,0,5043.778,4280.6Z" fill="#fff"/><path d="M5038.728,4285.744c0-.622,0-1.243,0-1.865a1.291,1.291,0,0,1,.046-.377.977.977,0,0,1,.491-.61.86.86,0,0,1,1.027.193,1.025,1.025,0,0,1,.249.484,1.733,1.733,0,0,1,.04.358q0,1.812,0,3.624a2.011,2.011,0,0,1-.037.379.977.977,0,0,1-.389.611.874.874,0,0,1-1.093-.071,1.086,1.086,0,0,1-.331-.734c0-.056,0-.113,0-.169v-1.823Z" fill="#fff"/><path d="M5052.1,4285.752q0,.9,0,1.8c0,.085,0,.17-.005.255a1.01,1.01,0,0,1-.293.641.876.876,0,0,1-1.294-.072,1.077,1.077,0,0,1-.238-.644c0-.056,0-.113,0-.169v-3.624c0-.063,0-.127,0-.19a1.017,1.017,0,0,1,.312-.7.859.859,0,0,1,1.3.1.967.967,0,0,1,.213.588c0,.077,0,.155,0,.233q0,.889,0,1.779Z" fill="#fff"/></g></svg>