<svg xmlns="http://www.w3.org/2000/svg" xmlns:xlink="http://www.w3.org/1999/xlink" width="192.204" height="153.04" viewBox="0 0 192.204 153.04">
  <defs>
    <clipPath id="clip-path">
      <rect id="Rectangle_840" data-name="Rectangle 840" width="192.204" height="153.04" transform="translate(1012.959 57.189)" fill="none"/>
    </clipPath>
  </defs>
  <g id="Group_884" data-name="Group 884" transform="translate(-1012.959 -57.189)" clip-path="url(#clip-path)">
    <rect id="Rectangle_827" data-name="Rectangle 827" width="4.372" height="22.495" transform="translate(1174.534 154.107)" fill="#003c77"/>
    <rect id="Rectangle_828" data-name="Rectangle 828" width="8.921" height="8.921" transform="translate(1170.47 111.052) rotate(-45)" fill="#003c77"/>
    <rect id="Rectangle_829" data-name="Rectangle 829" width="6.644" height="6.644" transform="matrix(0.707, -0.707, 0.707, 0.707, 1172.08, 126.742)" fill="#003c77"/>
    <rect id="Rectangle_830" data-name="Rectangle 830" width="7.388" height="7.388" transform="matrix(0.588, -0.809, 0.809, 0.588, 1162.259, 121.581)" fill="#003c77"/>
    <rect id="Rectangle_831" data-name="Rectangle 831" width="8.921" height="8.921" transform="translate(1149.516 116.369) rotate(-62.996)" fill="#00a4de"/>
    <rect id="Rectangle_832" data-name="Rectangle 832" width="7.387" height="7.388" transform="translate(1180.979 119.945) rotate(-35.995)" fill="#003c77"/>
    <rect id="Rectangle_833" data-name="Rectangle 833" width="10.771" height="10.771" transform="translate(1156.877 102.897) rotate(-54)" fill="#21bcba"/>
    <rect id="Rectangle_834" data-name="Rectangle 834" width="10.772" height="10.772" transform="translate(1181.634 100.513) rotate(-35.999)" fill="#9b9da0"/>
    <rect id="Rectangle_835" data-name="Rectangle 835" width="13.007" height="13.007" transform="translate(1167.581 88.862) rotate(-45.002)" fill="#74b543"/>
    <rect id="Rectangle_836" data-name="Rectangle 836" width="8.921" height="8.921" transform="translate(1192.042 112.47) rotate(-26.994)" fill="#c0d346"/>
    <path id="Path_669" data-name="Path 669" d="M1059.278,159.343l3.624-3.624-3.624-3.653-3.653,3.653Z" fill="#003c77"/>
    <g id="Group_883" data-name="Group 883">
      <g id="Group_882" data-name="Group 882" clip-path="url(#clip-path)">
        <path id="Path_670" data-name="Path 670" d="M1164.236,173.2l-7.448-.025.054-5.781c.057-5.063-3.826-8.544-9.464-8.544-5.753,0-9.234,3.279-9.234,8.688,0,4.573-.949,5.609-2.761,5.609h-4.692V159.343c-.834-.029-1.639-.116-2.359-.144-1.352-.087-2.5-.173-4.2-.173-6.788,0-10.614,3.021-10.614,8.515,0,5.408,3.451,9.061,9.78,9.061h2.972c-.251,2.307-1.224,3.193-3.633,3.193H1115.9V183.1h6.734c5.153,0,7.791-2.085,8.031-6.5h4.715c2.611,0,4.245-.9,5.259-2.3,1.761,1.589,4.4,2.3,7.772,2.3h20.166v-22.5h-4.344Zm-46.346-5.662c0-3.769,1.928-5.409,6.329-5.264l2.1.086V173.15h-2.762c-3.912,0-5.667-2.215-5.667-5.609m30.524,5.609c-4.948,0-5.926-2.013-5.926-5.609,0-3.366,1.812-5.264,4.977-5.264,3.221,0,5.062,1.869,5.034,5.12l-.054,5.767Z" fill="#003c77"/>
        <path id="Path_671" data-name="Path 671" d="M1056.833,147.088h17.691V130.117h-4.372v13.519h-13.031a5.292,5.292,0,0,1-5.667-5.609,7.258,7.258,0,0,1,2.1-4.948l-3.941-1.639a9.812,9.812,0,0,0-2.5,6.587c0,5.236,3.6,9.061,9.723,9.061" fill="#003c77"/>
        <path id="Path_672" data-name="Path 672" d="M1088.634,159.026a46.971,46.971,0,0,0-7.8,1.035v-5.954h-4.373V173.15h-6.976V162.622h-4.372v10.844c0,4.488-1.784,6.185-6.444,6.185-4.4,0-7.12-2.244-7.12-6.5a18.553,18.553,0,0,1,2.128-7.882l-4.113-.489a20.2,20.2,0,0,0-2.387,9c0,5.868,4.473,9.32,11.406,9.32,5.629,0,9.324-2.334,10.5-6.5h20.441c6.242,0,9.723-3.711,9.723-9.061,0-5.552-3.8-8.515-10.615-8.515m.6,14.124h-8.4v-9.674l.431-.106a35.458,35.458,0,0,1,7.335-1.093c4.2,0,6.3,1.783,6.3,5.264,0,3.394-1.784,5.609-5.667,5.609" fill="#003c77"/>
        <path id="Path_673" data-name="Path 673" d="M1120.736,144.758c1.208,1.525,3.279,2.33,6.012,2.33h27.511v-3.451h-3.452v-4.632c0-6.185-3.48-8.889-11.362-8.889h-6.756v3.308h6.5c5.408,0,7.22,1.5,7.22,6.214v4h-19.658c-3.768,0-4.344-1.813-4.344-5.926v-7.6h-4.257v8.372c0,3.682-.834,5.35-2.761,5.35-2.761,0-3.423-1.812-3.423-5.466v-6.126h-4.344v6.126c0,3.682-1.3,5.265-4.171,5.265h-3.078V132.246h-4.4v11.391h-10.786V124.594h-4.344v22.494h22.638c2.79,0,4.89-.92,6.213-2.646a6.278,6.278,0,0,0,5.7,2.877,6.054,6.054,0,0,0,5.35-2.561" fill="#003c77"/>
        <rect id="Rectangle_837" data-name="Rectangle 837" width="4.372" height="22.495" transform="translate(1104.355 154.107)" fill="#003c77"/>
        <rect id="Rectangle_838" data-name="Rectangle 838" width="4.372" height="22.495" transform="translate(1174.534 154.107)" fill="#003c77"/>
      </g>
    </g>
  </g>
</svg>
