<svg xmlns="http://www.w3.org/2000/svg" width="20" height="25" viewBox="0 0 20 25">
  <g id="Group_931" data-name="Group 931" transform="translate(-5720 -7432)">
    <rect id="Rectangle_866" data-name="Rectangle 866" width="20" height="25" transform="translate(5720 7432)" fill="#fff"/>
    <g id="Group_402" data-name="Group 402" transform="translate(0 5)">
      <path id="Path_252" data-name="Path 252" d="M5738.339,7440.233a1.353,1.353,0,0,1-1.041,1.316h.028a1.354,1.354,0,1,1,0,2.708c-.038,0-.077,0-.115-.006s-.079.006-.119.006H5732.7a1.494,1.494,0,0,0-.491.347c-.08.087-.142.186-.2.259s-.075.1.026.287.339.582.755,1.388c.8,1.542.99,2.955-.153,3.958a1,1,0,0,1-.951.02c-.18-.126-.22-.152-.434-.641a10.4,10.4,0,0,0-1.707-2.83,5.5,5.5,0,0,0-.7-.665,12.2,12.2,0,0,1-1.4-1.14,14.366,14.366,0,0,1-.658-1.338c-.077-.133-.092-.2-.184-.346a2.567,2.567,0,0,0-.656-.312c-.18-.075-.353-.115-.353-.175v-8.6c0-.194.008-.514.008-.514.271-.359,4.573-.359,4.612-.359h5.6l.246,0h.022l.045,0h.044a1.324,1.324,0,0,1,.341,2.574c.039,0,.077-.006.117-.006a1.373,1.373,0,0,1,.312,2.71l.047,0A1.354,1.354,0,0,1,5738.339,7440.233Z" fill="#ccc"/>
      <path id="Path_253" data-name="Path 253" d="M5721.409,7444h2.669a.688.688,0,0,0,.686-.685v-9.528a.687.687,0,0,0-.686-.685h-2.669a.687.687,0,0,0-.686.685v9.528A.688.688,0,0,0,5721.409,7444Zm.677-10.141a.605.605,0,1,1-.6.6A.606.606,0,0,1,5722.086,7433.854Z" fill="#ccc"/>
    </g>
  </g>
</svg>
