<svg xmlns="http://www.w3.org/2000/svg" width="34.586" height="27.438" viewBox="0 0 34.586 27.438"><path d="M4144.306,8069.828a7.712,7.712,0,0,1-2.548,3.441,16.286,16.286,0,0,0,3.32-.765c-.056.089-.106.183-.168.268a13.77,13.77,0,0,1-2.651,2.732.641.641,0,0,0-.281.541,21.528,21.528,0,0,1-.45,4.377,18.75,18.75,0,0,1-7.875,11.747,16.443,16.443,0,0,1-7.518,2.795,19.645,19.645,0,0,1-8.262-.612,21.356,21.356,0,0,1-4.017-1.786c-.1-.056-.191-.122-.286-.186a.8.8,0,0,1-.079-.136,13.409,13.409,0,0,0,9.433-2.673,6.75,6.75,0,0,1-6.023-4.547,9.134,9.134,0,0,0,2.722-.147,6.674,6.674,0,0,1-3.592-2.353,6.15,6.15,0,0,1-1.391-4.129,7.124,7.124,0,0,0,2.8.8c-2.861-2.414-3.429-5.286-1.964-8.693.567.554,1.074,1.048,1.579,1.545a18.192,18.192,0,0,0,11.669,5.24,1.48,1.48,0,0,0,.161,0c0-.555.008-1.089,0-1.622a6.447,6.447,0,0,1,5.237-6.238,6.247,6.247,0,0,1,5.595,1.536.952.952,0,0,0,1.067.252q1.39-.525,2.777-1.059C4143.789,8070.066,4144.007,8069.959,4144.306,8069.828Z" transform="translate(-4112.145 -8068.441)" fill="#00a3dd" stroke="#00a3dd" stroke-miterlimit="10" stroke-width="1.5"/></svg>