<svg xmlns="http://www.w3.org/2000/svg" width="17.957" height="17.63" viewBox="0 0 17.957 17.63"><g transform="translate(-7397.258 -7540.004)"><path d="M7414.873,7550.4a1.352,1.352,0,0,0-1.041-1.316h.029a1.354,1.354,0,0,0,0-2.708c-.039,0-.077,0-.116.006s-.079-.006-.119-.006h-4.391a1.472,1.472,0,0,1-.491-.348,3.188,3.188,0,0,1-.2-.258c-.06-.077-.075-.1.025-.287s.339-.582.756-1.388c.8-1.543.989-2.955-.154-3.959a.994.994,0,0,0-.951-.019c-.18.125-.219.152-.433.641a10.474,10.474,0,0,1-1.707,2.83,5.56,5.56,0,0,1-.705.664,12.271,12.271,0,0,0-1.4,1.14,14.723,14.723,0,0,0-.657,1.339c-.078.133-.092.2-.184.345a2.563,2.563,0,0,1-.657.313c-.18.075-.353.115-.353.175v8.6c0,.194.008.514.008.514.271.359,4.573.359,4.612.359h5.6l.246,0h.022l.045,0h.044a1.324,1.324,0,0,0,.341-2.575q.059.006.117.006a1.373,1.373,0,0,0,.313-2.71l.046,0A1.354,1.354,0,0,0,7414.873,7550.4Z" fill="#ccc"/><path d="M7400.613,7546.737h-2.67a.687.687,0,0,0-.685.685v9.528a.686.686,0,0,0,.685.685h2.67a.686.686,0,0,0,.685-.685v-9.528A.687.687,0,0,0,7400.613,7546.737Zm-.678,10.141a.605.605,0,1,1,.606-.6A.605.605,0,0,1,7399.935,7556.878Z" fill="#ccc"/></g></svg>