<svg xmlns="http://www.w3.org/2000/svg" width="37.989" height="26.91" viewBox="0 0 37.989 26.91"><g transform="translate(-4173.082 -8068.759)"><path d="M4188.154,8087.176v-10.749l10.264,5.393Zm22.538-12.612s-.372-2.636-1.511-3.8a5.4,5.4,0,0,0-3.806-1.62c-5.316-.388-13.29-.388-13.29-.388h-.017s-7.974,0-13.29.388a5.4,5.4,0,0,0-3.808,1.62c-1.138,1.161-1.509,3.8-1.509,3.8a58.445,58.445,0,0,0-.379,6.192v2.9a58.4,58.4,0,0,0,.379,6.192s.371,2.636,1.509,3.8c1.446,1.525,3.345,1.477,4.19,1.636,3.039.294,12.916.385,12.916.385s7.983-.012,13.3-.4a5.414,5.414,0,0,0,3.806-1.622c1.139-1.161,1.511-3.8,1.511-3.8a58.4,58.4,0,0,0,.379-6.192v-2.9a58.445,58.445,0,0,0-.379-6.192Z" fill="#c4302b" fill-rule="evenodd"/></g></svg>