<svg xmlns="http://www.w3.org/2000/svg" width="12.819" height="12.787" viewBox="0 0 12.819 12.787">
  <path id="Path_209" data-name="Path 209" d="M3403.493,165.306a2.244,2.244,0,0,0,.038-.283,1.378,1.378,0,0,1,.406-.769,11.227,11.227,0,0,1,.829-.808,1.863,1.863,0,0,1,.56-.314,1.115,1.115,0,0,1,.846.057,2.187,2.187,0,0,1,.7.536,5.242,5.242,0,0,1,.9,1.291,1.721,1.721,0,0,1,.159.55,1.23,1.23,0,0,1-.3.921,4.838,4.838,0,0,1-.506.537.653.653,0,0,0-.255.586,1.394,1.394,0,0,0,.086.329,3.869,3.869,0,0,0,.59.982,17.959,17.959,0,0,0,2.7,2.735,4.732,4.732,0,0,0,1.106.715,1.463,1.463,0,0,0,.416.122.564.564,0,0,0,.5-.164c.2-.2.382-.4.6-.579a1.361,1.361,0,0,1,.676-.328,1.378,1.378,0,0,1,.678.092,3.4,3.4,0,0,1,.8.44,4.767,4.767,0,0,1,.863.734,2.01,2.01,0,0,1,.3.441,1.169,1.169,0,0,1-.04,1.144,3.624,3.624,0,0,1-.669.815c-.118.117-.242.228-.355.349a1.32,1.32,0,0,1-.809.392,1.5,1.5,0,0,0-.276.032h-.218a.141.141,0,0,0-.083-.016,3.759,3.759,0,0,1-.561-.072,7.034,7.034,0,0,1-1.376-.427,11.655,11.655,0,0,1-2.006-1.084,16.435,16.435,0,0,1-2.246-1.8,17.748,17.748,0,0,1-1.754-1.923,12.513,12.513,0,0,1-1.878-3.2,5.957,5.957,0,0,1-.371-1.375c-.016-.125-.031-.251-.046-.376Z" transform="translate(-3403.493 -163.074)" fill="#FFFFFF"/>
</svg>
