<svg xmlns="http://www.w3.org/2000/svg" width="58.325" height="59.98" viewBox="0 0 58.325 59.98"><g transform="translate(-642.994 -857.253)"><path d="M681.279,914.809a26.772,26.772,0,0,1-7.9,2.22,27.119,27.119,0,1,1,7.9-2.22Z" fill="#bfd145" style="mix-blend-mode:multiply;isolation:isolate"/><path d="M672.726,908.928a3.213,3.213,0,0,1-2.34.985,3,3,0,0,1-.665-.066c-1.125-.23-8.092-1-8.5-2.069l-.452-17.019H658.1v-3.334h-5a1.666,1.666,0,0,1-1.658-1.666v-9.984a1.666,1.666,0,0,1,1.658-1.667h5v-3.334h16.454c-.009,0-.017.009-.025.009v19.869c.123.033-2.578.015-2.578.015l-.006,11.267C672.6,903.173,672.726,908.928,672.726,908.928Z" fill="#003c77"/><path d="M701.319,858.8v43.749a1.356,1.356,0,0,1-.34.841c-.05.056-.087.1-.137.153a1.826,1.826,0,0,1-.86.479c-.015,0-.022.017-.029.018a2.531,2.531,0,0,1-.7.054,2.617,2.617,0,0,1-.83-.21c-.059-.022-.111-.074-.171-.1a2.4,2.4,0,0,1-.508-.353c-.014-.02-.044-.031-.059-.052a44.017,44.017,0,0,0-22.74-12.679c-.139-.026-.279-.061-.419-.087v-19.87c.009,0,.019-.008.028-.007a43.973,43.973,0,0,0,23.131-12.766c.015-.013.037-.018.052-.031a2.332,2.332,0,0,1,.894-.534,1.832,1.832,0,0,1,.23-.053,3.1,3.1,0,0,1,.392-.093,2.575,2.575,0,0,1,.573.054c.044.012.081-.013.125,0,.007,0,.014.009.029.018a1.825,1.825,0,0,1,.86.479.888.888,0,0,1,.137.146A1.356,1.356,0,0,1,701.319,858.8Z" fill="#1ebbb9"/><path d="M657.917,911.219a6.386,6.386,0,0,1-6.177-6.572v-4.491a6.387,6.387,0,0,1,6.177-6.575h10.294a6.383,6.383,0,0,1,6.175,6.575v4.491a6.381,6.381,0,0,1-6.175,6.572Z" fill="#fff"/><path d="M658.268,911.272a2.336,2.336,0,0,1-2.336-2.334h0a2.335,2.335,0,0,1,2.336-2.337H674.72a2.334,2.334,0,0,1,2.335,2.337h0a2.335,2.335,0,0,1-2.335,2.334Z" fill="#fff"/><path d="M657.941,902.735A2.339,2.339,0,0,1,655.6,900.4h0a2.338,2.338,0,0,1,2.337-2.336h19.008a2.336,2.336,0,0,1,2.337,2.336h0a2.337,2.337,0,0,1-2.337,2.336Z" fill="#fff"/><path d="M657.507,907.164a2.336,2.336,0,0,1-2.337-2.336h0a2.335,2.335,0,0,1,2.337-2.334h19.006a2.334,2.334,0,0,1,2.336,2.334h0a2.336,2.336,0,0,1-2.336,2.336Z" fill="#fff"/><path d="M656.645,898.284a2.336,2.336,0,0,1-2.337-2.336h0a2.337,2.337,0,0,1,2.337-2.334h19.011a2.334,2.334,0,0,1,2.333,2.334h0a2.334,2.334,0,0,1-2.333,2.336Z" fill="#fff"/><path d="M660.886,890.708H656.6c-.381,0-.672-.243-1.061.642-1.525,1.883-4.137,5.3-4.137,5.3l6.106-.7s3.435-1.1,3.425-2.369A11.974,11.974,0,0,0,660.886,890.708Z" fill="#fff"/><rect width="8.968" height="18.929" transform="translate(645.114 892.342)" fill="#003c77"/></g></svg>