<svg xmlns="http://www.w3.org/2000/svg" width="13.249" height="13.249" viewBox="0 0 13.249 13.249">
  <path id="Path_664" data-name="Path 664" d="M6193.98,3043.905s-4.03-1.361-4.956-1.631l-.232-.608a5.236,5.236,0,0,0,1.6-2.419,2.3,2.3,0,0,0,.576-1.475.56.56,0,0,0-.3-.492,5.366,5.366,0,0,0-.647-2.75,2.949,2.949,0,0,0-2.666-1.39c-2.071,0-3.312,1.45-3.312,4.141v0a.532.532,0,0,0-.3.541,2.516,2.516,0,0,0,.655,1.549,4.892,4.892,0,0,0,1.6,2.293l-.311.6c-1.014.322-4.955,1.643-4.955,1.643v2.484h13.249Z" transform="translate(-6180.731 -3033.14)" fill="#fff"/>
</svg>
