<svg xmlns="http://www.w3.org/2000/svg" width="17.957" height="17.531" viewBox="0 0 17.957 17.531"><g transform="translate(-7354.97 -7546.634)"><path d="M7372.585,7553.77a1.353,1.353,0,0,1-1.041,1.316h.029a1.354,1.354,0,0,1,0,2.708c-.039,0-.078,0-.116-.006s-.079.006-.119.006h-4.392a1.489,1.489,0,0,0-.49.347c-.081.087-.143.186-.2.259s-.075.1.026.287.339.582.756,1.388c.8,1.542.989,2.955-.154,3.958a1,1,0,0,1-.951.02c-.18-.126-.22-.152-.433-.641a10.419,10.419,0,0,0-1.708-2.83,5.455,5.455,0,0,0-.7-.664,12.245,12.245,0,0,1-1.4-1.141,14.54,14.54,0,0,1-.658-1.338c-.077-.133-.092-.2-.183-.346a2.605,2.605,0,0,0-.657-.312c-.18-.075-.353-.115-.353-.175v-8.6c0-.194.008-.514.008-.514.271-.359,4.573-.359,4.612-.359h5.6l.246,0h.022l.045,0h.044a1.324,1.324,0,0,1,.341,2.574c.039,0,.078-.006.117-.006a1.373,1.373,0,0,1,.313,2.71l.046,0A1.354,1.354,0,0,1,7372.585,7553.77Z" fill="#ccc"/><path d="M7355.655,7557.532h2.67a.687.687,0,0,0,.685-.685v-9.528a.687.687,0,0,0-.685-.685h-2.67a.686.686,0,0,0-.685.685v9.528A.686.686,0,0,0,7355.655,7557.532Zm.677-10.141a.605.605,0,1,1-.6.6A.605.605,0,0,1,7356.332,7547.391Z" fill="#ccc"/></g></svg>